# xmcd
#
# Track frame offsets:
#	150
#	12600
#	24950
#	35049
#	46984
#	61201
#	72670
#	82853
#	93591
#	106574
#	119091
#	131841
#	144973
#	153857
#	164695
#	175349
#	184100
#	192881
#	203413
#	216284
#
# Disc length: 3026 seconds
#
# Revision: 0
# Processed by: cddbd v1.5.2PL0 Copyright (c) Steve Scherf et al.
# Submitted via: EasyCDDAExtractor 11.1.0.1
#
DISCID=190bd014
DTITLE=Various Artist - Outlaws
DYEAR=2008
DGENRE=Country
TTITLE0=Johnny Cash - I Walk The Line
TTITLE1=Merle Haggard - Okie From Muskogee
TTITLE2=Willie Nelson - Broken Promises
TTITLE3=Wayon Jennings - White Lightning
TTITLE4=George Jones - A Good Year For The Roses
TTITLE5=Johnny Cash - Oh Lonesome Me
TTITLE6=Merle Haggard - Mama Tried
TTITLE7=Waylon Jennings - Burning Memories
TTITLE8=George Jones - Saginaw Michigan
TTITLE9=Willie Nelson - Shelter Of Your Arms
TTITLE10=Johnny Cash - Folsom Prison Blues
TTITLE11=Merle Haggard - The Fightin' Side Of Me
TTITLE12=Waylon Jennings - Jolie Blon
TTITLE13=George Jones - Tender Year
TTITLE14=Willie Nelson - Blame It On The Times
TTITLE15=Johnny Cash - Guess Things Happen That Way
TTITLE16=Waylon Jennings - Abiline
TTITLE17=George Jones - Walk Through This World With Me
TTITLE18=Willie Nelson - Any Old Arms Won't Do
TTITLE19=Merle Haggard - Today I Started Loving You Again
EXTD=
EXTT0=
EXTT1=
EXTT2=
EXTT3=
EXTT4=
EXTT5=
EXTT6=
EXTT7=
EXTT8=
EXTT9=
EXTT10=
EXTT11=
EXTT12=
EXTT13=
EXTT14=
EXTT15=
EXTT16=
EXTT17=
EXTT18=
EXTT19=
PLAYORDER=
